{
    "asset" : {
        "generator" : "Khronos glTF Blender I/O v1.2.75",
        "version" : "2.0"
    },
    "scene" : 0,
    "scenes" : [
        {
            "name" : "Scene",
            "nodes" : [
                1,
                2,
                3
            ]
        }
    ],
    "nodes" : [
        {
            "mesh" : 0,
            "name" : "Bistro_Research_Exterior__lod0_Vespa_3937",
            "rotation" : [
                -0.7071068286895752,
                0,
                0,
                0.7071067094802856
            ],
            "translation" : [
                -3.5355396270751953,
                -10.629499435424805,
                -46.84797668457031
            ]
        },
        {
            "children" : [
                0
            ],
            "name" : "BistroExterior",
            "rotation" : [
                0.7071068286895752,
                0,
                0,
                0.7071067094802856
            ],
            "scale" : [
                0.01600000075995922,
                0.01600000075995922,
                0.01600000075995922
            ]
        },
        {
            "name" : "Light",
            "rotation" : [
                0.16907575726509094,
                0.7558803558349609,
                -0.27217137813568115,
                0.570947527885437
            ],
            "translation" : [
                4.076245307922363,
                5.903861999511719,
                -1.0054539442062378
            ]
        },
        {
            "name" : "Camera",
            "rotation" : [
                0.483536034822464,
                0.33687159419059753,
                -0.20870360732078552,
                0.7804827094078064
            ],
            "translation" : [
                7.358891487121582,
                4.958309173583984,
                6.925790786743164
            ]
        }
    ],
    "materials" : [
        {
            "doubleSided" : true,
            "emissiveFactor" : [
                0,
                0,
                0
            ],
            "name" : "Vespa",
            "normalTexture" : {
                "index" : 0,
                "texCoord" : 0
            },
            "pbrMetallicRoughness" : {
                "baseColorTexture" : {
                    "index" : 1,
                    "texCoord" : 0
                },
                "metallicRoughnessTexture" : {
                    "index" : 2,
                    "texCoord" : 0
                }
            }
        },
        {
            "doubleSided" : true,
            "name" : "Vespa_Odometer",
            "pbrMetallicRoughness" : {}
        }
    ],
    "meshes" : [
        {
            "name" : "Mesh.1282",
            "primitives" : [
                {
                    "attributes" : {
                        "POSITION" : 0,
                        "NORMAL" : 1,
                        "TEXCOORD_0" : 2,
                        "TEXCOORD_1" : 3
                    },
                    "indices" : 4,
                    "material" : 0
                },
                {
                    "attributes" : {
                        "POSITION" : 5,
                        "NORMAL" : 6,
                        "TEXCOORD_0" : 7,
                        "TEXCOORD_1" : 8
                    },
                    "indices" : 9,
                    "material" : 1
                }
            ]
        }
    ],
    "textures" : [
        {
            "source" : 0
        },
        {
            "source" : 1
        },
        {
            "source" : 2
        }
    ],
    "images" : [
        {
            "mimeType" : "image/png",
            "name" : "Vespa_Normal",
            "uri" : "Vespa_Normal.png"
        },
        {
            "mimeType" : "image/png",
            "name" : "Vespa_BaseColor",
            "uri" : "Vespa_BaseColor.png"
        },
        {
            "mimeType" : "image/png",
            "name" : "Vespa_MetalRoughness",
            "uri" : "Vespa_MetalRoughness.png"
        }
    ],
    "accessors" : [
        {
            "bufferView" : 0,
            "componentType" : 5126,
            "count" : 26628,
            "max" : [
                57.913055419921875,
                79.8973617553711,
                69.59286499023438
            ],
            "min" : [
                -70.92446899414062,
                -48.84644317626953,
                -71.60739135742188
            ],
            "type" : "VEC3"
        },
        {
            "bufferView" : 1,
            "componentType" : 5126,
            "count" : 26628,
            "type" : "VEC3"
        },
        {
            "bufferView" : 2,
            "componentType" : 5126,
            "count" : 26628,
            "type" : "VEC2"
        },
        {
            "bufferView" : 3,
            "componentType" : 5126,
            "count" : 26628,
            "type" : "VEC2"
        },
        {
            "bufferView" : 4,
            "componentType" : 5123,
            "count" : 109371,
            "type" : "SCALAR"
        },
        {
            "bufferView" : 5,
            "componentType" : 5126,
            "count" : 108,
            "max" : [
                -16.616241455078125,
                62.59160614013672,
                -19.625152587890625
            ],
            "min" : [
                -23.688751220703125,
                59.27465057373047,
                -27.832778930664062
            ],
            "type" : "VEC3"
        },
        {
            "bufferView" : 6,
            "componentType" : 5126,
            "count" : 108,
            "type" : "VEC3"
        },
        {
            "bufferView" : 7,
            "componentType" : 5126,
            "count" : 108,
            "type" : "VEC2"
        },
        {
            "bufferView" : 8,
            "componentType" : 5126,
            "count" : 108,
            "type" : "VEC2"
        },
        {
            "bufferView" : 9,
            "componentType" : 5123,
            "count" : 492,
            "type" : "SCALAR"
        }
    ],
    "bufferViews" : [
        {
            "buffer" : 0,
            "byteLength" : 319536,
            "byteOffset" : 0
        },
        {
            "buffer" : 0,
            "byteLength" : 319536,
            "byteOffset" : 319536
        },
        {
            "buffer" : 0,
            "byteLength" : 213024,
            "byteOffset" : 639072
        },
        {
            "buffer" : 0,
            "byteLength" : 213024,
            "byteOffset" : 852096
        },
        {
            "buffer" : 0,
            "byteLength" : 218742,
            "byteOffset" : 1065120
        },
        {
            "buffer" : 0,
            "byteLength" : 1296,
            "byteOffset" : 1283864
        },
        {
            "buffer" : 0,
            "byteLength" : 1296,
            "byteOffset" : 1285160
        },
        {
            "buffer" : 0,
            "byteLength" : 864,
            "byteOffset" : 1286456
        },
        {
            "buffer" : 0,
            "byteLength" : 864,
            "byteOffset" : 1287320
        },
        {
            "buffer" : 0,
            "byteLength" : 984,
            "byteOffset" : 1288184
        }
    ],
    "buffers" : [
        {
            "byteLength" : 1289168,
            "uri" : "bistro_motor2.bin"
        }
    ]
}
