{
    "asset" : {
        "generator" : "Khronos glTF Blender I/O v1.2.75",
        "version" : "2.0"
    },
    "scene" : 0,
    "scenes" : [
        {
            "name" : "Scene",
            "nodes" : [
                1,
                2,
                3,
                4
            ]
        }
    ],
    "nodes" : [
        {
            "mesh" : 0,
            "name" : "Bistro_Research_Exterior__lod0_Vespa_3937"
        },
        {
            "children" : [
                0
            ],
            "name" : "BistroExterior",
            "rotation" : [
                0.7071068286895752,
                0,
                0,
                0.7071067094802856
            ],
            "scale" : [
                0.01600000075995922,
                0.01600000075995922,
                0.01600000075995922
            ]
        },
        {
            "name" : "BistroExterior.001",
            "rotation" : [
                0.7071068286895752,
                0,
                0,
                0.7071067094802856
            ],
            "scale" : [
                0.01600000075995922,
                0.01600000075995922,
                0.01600000075995922
            ],
            "translation" : [
                3.216597557067871,
                9.807814598083496,
                2.0487217903137207
            ]
        },
        {
            "name" : "Light",
            "rotation" : [
                0.16907575726509094,
                0.27217137813568115,
                0.7558803558349609,
                0.570947527885437
            ],
            "translation" : [
                4.076245307922363,
                1.0054539442062378,
                5.903861999511719
            ]
        },
        {
            "camera" : 0,
            "name" : "Camera",
            "rotation" : [
                0.483536034822464,
                0.20870360732078552,
                0.33687159419059753,
                0.7804827094078064
            ],
            "translation" : [
                7.358891487121582,
                -6.925790786743164,
                4.958309173583984
            ]
        }
    ],
    "cameras" : [
        {
            "name" : "Camera",
            "perspective" : {
                "yfov" : 0.39959652046304894,
                "zfar" : 100,
                "znear" : 0.10000000149011612
            },
            "type" : "perspective"
        }
    ],
    "materials" : [
        {
            "doubleSided" : true,
            "emissiveFactor" : [
                0,
                0,
                0
            ],
            "name" : "Vespa",
            "normalTexture" : {
                "index" : 0,
                "texCoord" : 0
            },
            "pbrMetallicRoughness" : {
                "baseColorTexture" : {
                    "index" : 1,
                    "texCoord" : 0
                },
                "metallicRoughnessTexture" : {
                    "index" : 2,
                    "texCoord" : 0
                }
            }
        },
        {
            "doubleSided" : true,
            "name" : "Vespa_Odometer",
            "pbrMetallicRoughness" : {}
        }
    ],
    "meshes" : [
        {
            "name" : "Mesh.1282",
            "primitives" : [
                {
                    "attributes" : {
                        "POSITION" : 0,
                        "NORMAL" : 1,
                        "TEXCOORD_0" : 2,
                        "TEXCOORD_1" : 3
                    },
                    "indices" : 4,
                    "material" : 0
                },
                {
                    "attributes" : {
                        "POSITION" : 5,
                        "NORMAL" : 6,
                        "TEXCOORD_0" : 7,
                        "TEXCOORD_1" : 8
                    },
                    "indices" : 9,
                    "material" : 1
                }
            ]
        }
    ],
    "textures" : [
        {
            "source" : 0
        },
        {
            "source" : 1
        },
        {
            "source" : 2
        }
    ],
    "images" : [
        {
            "mimeType" : "image/png",
            "name" : "Vespa_Normal",
            "uri" : "Vespa_Normal.png"
        },
        {
            "mimeType" : "image/png",
            "name" : "Vespa_BaseColor",
            "uri" : "Vespa_BaseColor.png"
        },
        {
            "mimeType" : "image/png",
            "name" : "Vespa_MetalRoughness",
            "uri" : "Vespa_MetalRoughness.png"
        }
    ],
    "accessors" : [
        {
            "bufferView" : 0,
            "componentType" : 5126,
            "count" : 26628,
            "max" : [
                38.11016082763672,
                79.89735412597656,
                80.94387817382812
            ],
            "min" : [
                -35.46151351928711,
                -48.84644317626953,
                -96.2763671875
            ],
            "type" : "VEC3"
        },
        {
            "bufferView" : 1,
            "componentType" : 5126,
            "count" : 26628,
            "type" : "VEC3"
        },
        {
            "bufferView" : 2,
            "componentType" : 5126,
            "count" : 26628,
            "type" : "VEC2"
        },
        {
            "bufferView" : 3,
            "componentType" : 5126,
            "count" : 26628,
            "type" : "VEC2"
        },
        {
            "bufferView" : 4,
            "componentType" : 5123,
            "count" : 109371,
            "type" : "SCALAR"
        },
        {
            "bufferView" : 5,
            "componentType" : 5126,
            "count" : 108,
            "max" : [
                6.463386535644531,
                62.59159851074219,
                -28.481157302856445
            ],
            "min" : [
                -2.978085517883301,
                59.27464294433594,
                -33.60845184326172
            ],
            "type" : "VEC3"
        },
        {
            "bufferView" : 6,
            "componentType" : 5126,
            "count" : 108,
            "type" : "VEC3"
        },
        {
            "bufferView" : 7,
            "componentType" : 5126,
            "count" : 108,
            "type" : "VEC2"
        },
        {
            "bufferView" : 8,
            "componentType" : 5126,
            "count" : 108,
            "type" : "VEC2"
        },
        {
            "bufferView" : 9,
            "componentType" : 5123,
            "count" : 492,
            "type" : "SCALAR"
        }
    ],
    "bufferViews" : [
        {
            "buffer" : 0,
            "byteLength" : 319536,
            "byteOffset" : 0
        },
        {
            "buffer" : 0,
            "byteLength" : 319536,
            "byteOffset" : 319536
        },
        {
            "buffer" : 0,
            "byteLength" : 213024,
            "byteOffset" : 639072
        },
        {
            "buffer" : 0,
            "byteLength" : 213024,
            "byteOffset" : 852096
        },
        {
            "buffer" : 0,
            "byteLength" : 218742,
            "byteOffset" : 1065120
        },
        {
            "buffer" : 0,
            "byteLength" : 1296,
            "byteOffset" : 1283864
        },
        {
            "buffer" : 0,
            "byteLength" : 1296,
            "byteOffset" : 1285160
        },
        {
            "buffer" : 0,
            "byteLength" : 864,
            "byteOffset" : 1286456
        },
        {
            "buffer" : 0,
            "byteLength" : 864,
            "byteOffset" : 1287320
        },
        {
            "buffer" : 0,
            "byteLength" : 984,
            "byteOffset" : 1288184
        }
    ],
    "buffers" : [
        {
            "byteLength" : 1289168,
            "uri" : "bistro_motor.bin"
        }
    ]
}
